HIERARCHY
ROOT Hips
{
	OFFSET 45.000000 -7.758496 99.890198
	CHANNELS 6 Xposition Yposition Zposition Xrotation Yrotation Zrotation
	JOINT spine
	{
		OFFSET 0.000000 -0.507026 8.817039
		CHANNELS 3 Xrotation Yrotation Zrotation
		JOINT spine1
		{
			OFFSET 0.000000 -0.000001 10.776604
			CHANNELS 3 Xrotation Yrotation Zrotation
			JOINT spine2
			{
				OFFSET 0.000000 -0.000002 10.325897
				CHANNELS 3 Xrotation Yrotation Zrotation
				JOINT Neck
				{
					OFFSET 0.000000 -1.263955 26.511002
					CHANNELS 3 Xrotation Yrotation Zrotation
					JOINT Head
					{
						OFFSET 0.000000 -0.000001 8.009659
						CHANNELS 3 Xrotation Yrotation Zrotation
						End Site
						{
							OFFSET 0.000000 6.393857 19.387894
						}
					}
				}
				JOINT RightShoulder
				{
					OFFSET -4.347950 0.605420 11.151199
					CHANNELS 3 Xrotation Yrotation Zrotation
					JOINT RightArm
					{
						OFFSET 0.000000 -0.000002 14.625793
						CHANNELS 3 Xrotation Yrotation Zrotation
						JOINT RightArmRoll
						{
							OFFSET 0.000000 -0.000001 7.383392
							CHANNELS 3 Xrotation Yrotation Zrotation
							JOINT RightForeArm
							{
								OFFSET 0.000000 -0.000003 21.505203
								CHANNELS 3 Xrotation Yrotation Zrotation
								JOINT RightForeArmRoll
								{
									OFFSET 0.000000 -0.000001 8.285324
									CHANNELS 3 Xrotation Yrotation Zrotation
									JOINT RightHand
									{
										OFFSET 0.000000 -0.000003 16.626801
										CHANNELS 3 Xrotation Yrotation Zrotation
										End Site
										{
											OFFSET 0.000000 0.000000 0.100006
										}
									}
								}
							}
						}
					}
				}
				JOINT LeftShoulder
				{
					OFFSET 4.347950 0.605420 11.151199
					CHANNELS 3 Xrotation Yrotation Zrotation
					JOINT LeftArm
					{
						OFFSET 0.000000 -0.000002 14.625793
						CHANNELS 3 Xrotation Yrotation Zrotation
						JOINT LeftArmRoll
						{
							OFFSET 0.000000 -0.000001 7.383392
							CHANNELS 3 Xrotation Yrotation Zrotation
							JOINT LeftForeArm
							{
								OFFSET 0.000000 -0.000003 21.505203
								CHANNELS 3 Xrotation Yrotation Zrotation
								JOINT LeftForeArmRoll
								{
									OFFSET 0.000000 -0.000001 8.285324
									CHANNELS 3 Xrotation Yrotation Zrotation
									JOINT LeftHand
									{
										OFFSET 0.000000 -0.000003 16.626801
										CHANNELS 3 Xrotation Yrotation Zrotation
										End Site
										{
											OFFSET 0.000000 0.000000 0.100006
										}
									}
								}
							}
						}
					}
				}
			}
		}
	}
	JOINT RightUpLeg
	{
		OFFSET -7.815102 1.202170 -1.433090
		CHANNELS 3 Xrotation Yrotation Zrotation
		JOINT RightUpLegRoll
		{
			OFFSET 0.000000 -0.000003 19.495895
			CHANNELS 3 Xrotation Yrotation Zrotation
			JOINT RightLeg
			{
				OFFSET 0.000000 0.000004 -24.142700
				CHANNELS 3 Xrotation Yrotation Zrotation
				JOINT RightLegRoll
				{
					OFFSET 0.000000 -0.000004 24.221703
					CHANNELS 3 Xrotation Yrotation Zrotation
					JOINT RightFoot
					{
						OFFSET 0.000000 -0.000003 20.160500
						CHANNELS 3 Xrotation Yrotation Zrotation
						JOINT RightToeBase
						{
							OFFSET 0.000000 -0.000003 16.853195
							CHANNELS 3 Xrotation Yrotation Zrotation
							End Site
							{
								OFFSET 0.007145 0.940780 8.161865
							}
						}
					}
				}
			}
		}
	}
	JOINT LeftUpLeg
	{
		OFFSET 7.815102 1.202170 -1.433090
		CHANNELS 3 Xrotation Yrotation Zrotation
		JOINT LeftUpLegRoll
		{
			OFFSET 0.000000 -0.000003 19.496002
			CHANNELS 3 Xrotation Yrotation Zrotation
			JOINT LeftLeg
			{
				OFFSET 0.000000 -0.000004 24.142593
				CHANNELS 3 Xrotation Yrotation Zrotation
				JOINT LeftLegRoll
				{
					OFFSET 0.000000 -0.000004 24.445602
					CHANNELS 3 Xrotation Yrotation Zrotation
					JOINT LeftFoot
					{
						OFFSET 0.000000 -0.000003 19.936600
						CHANNELS 3 Xrotation Yrotation Zrotation
						JOINT LeftToeBase
						{
							OFFSET 0.000000 -0.000002 16.853195
							CHANNELS 3 Xrotation Yrotation Zrotation
							End Site
							{
								OFFSET -0.032013 0.940779 8.161880
							}
						}
					}
				}
			}
		}
	}
}
MOTION
Frames: 5
Frame Time: 0.041667
50.538795 -11.397421 99.925804 -1.578993 -2.302987 3.551134 -1.985711 0.049619 0.118047 0.031293 0.111853 0.237521 1.676364 0.114690 0.236164 21.226298 7.947617 0.374908 -4.550757 -2.058965 0.958947 -5.251050 -59.967900 -6.323028 -37.098340 -119.677332 -22.524610 -0.000000 -0.000003 -0.000000 0.105186 -12.924280 -0.446626 0.000002 0.000005 -3.024640 -5.000232 -7.998712 0.000149 -10.460221 62.461356 12.564220 -38.451407 117.420924 30.794482 -0.000001 0.000030 -0.000002 1.762272 10.735342 0.336104 0.000002 -0.000027 3.000011 -5.000241 7.998753 -0.000143 -3.109842 -175.977912 0.956328 -179.999991 0.000005 -1.024004 165.257397 -2.046400 -0.903370 -0.000004 0.000004 0.305330 74.267987 6.596399 2.620722 25.459293 -7.349255 0.000604 -0.438110 -179.780018 3.876448 -0.000005 -0.000004 -1.112480 -10.640994 2.035810 0.598717 -0.000003 -0.000002 -0.217751 72.374044 -6.808746 -2.098943 25.716299 7.349584 -0.392765 
50.553596 -11.410820 99.921989 -1.565462 -2.301822 3.567259 -1.987449 0.049893 0.115929 0.027803 0.110349 0.233325 1.672873 0.113135 0.231987 21.241475 7.936678 0.372009 -4.569140 -2.043620 0.955047 -5.260838 -59.961903 -6.333968 -37.099610 -119.680009 -22.552716 -0.000001 -0.000003 -0.000000 0.105176 -12.944780 -0.443659 0.000001 0.000005 -3.024670 -5.000228 -7.998713 0.000149 -10.441876 62.464962 12.543216 -38.474869 117.443778 30.814006 0.000000 0.000030 -0.000001 1.747005 10.726429 0.337480 0.000002 -0.000027 3.000011 -5.000239 7.998753 -0.000142 -3.125986 -175.978977 0.952050 -179.999991 0.000005 -1.024004 165.248914 -2.042448 -0.902654 -0.000003 0.000004 0.305330 74.273034 6.594640 2.624383 25.459293 -7.349255 0.000604 -0.458179 -179.778994 3.878383 -0.000004 -0.000004 -1.112480 -10.659088 2.033162 0.600395 -0.000001 -0.000002 -0.218148 72.382336 -6.808779 -2.098943 25.716805 7.349588 -0.393566 
50.550396 -11.448819 99.923500 -1.551360 -2.300598 3.584009 -1.989339 0.050211 0.113734 0.024037 0.108791 0.229000 1.669103 0.111526 0.227682 21.257094 7.926332 0.368678 -4.588143 -2.028903 0.950834 -5.271037 -59.955482 -6.345330 -37.101758 -119.681853 -22.581574 -0.000001 -0.000003 0.000001 0.105157 -12.965080 -0.440749 0.000001 0.000004 -3.024719 -5.000227 -7.998712 0.000149 -10.422981 62.468610 12.521570 -38.497610 117.467601 30.832249 0.000002 0.000030 -0.000002 1.730983 10.717021 0.338928 0.000003 -0.000027 3.000010 -5.000241 7.998751 -0.000144 -3.142670 -175.980029 0.947385 -179.999991 0.000005 -1.024004 165.240458 -2.038499 -0.902934 -0.000004 0.000004 0.305330 74.278143 6.592791 2.628127 25.459294 -7.349255 0.000604 -0.477882 -179.778010 3.880618 -0.000005 -0.000004 -1.112480 -10.676080 2.030199 0.602078 -0.000003 -0.000002 -0.218541 72.390607 -6.808747 -2.098934 25.717310 7.349586 -0.394315 
50.558895 -11.445120 99.926697 -1.536875 -2.299345 3.601195 -1.991319 0.050560 0.111484 0.020079 0.107196 0.224585 1.665154 0.109877 0.223287 21.272935 7.916405 0.365077 -4.607562 -2.014635 0.946412 -5.281504 -59.948645 -6.356987 -37.102677 -119.684449 -22.608975 0.000001 -0.000003 0.000001 0.105137 -12.985182 -0.437885 -0.000000 0.000004 -3.024780 -5.000228 -7.998712 0.000149 -10.403654 62.472182 12.499431 -38.520696 117.491521 30.850523 -0.000001 0.000030 -0.000002 1.714429 10.707314 0.340421 0.000001 -0.000027 3.000009 -5.000242 7.998752 -0.000142 -3.159718 -175.981094 0.942444 -179.999991 0.000005 -1.024004 165.232071 -2.034549 -0.902212 -0.000003 0.000004 0.305330 74.283027 6.590908 2.632181 25.459289 -7.349255 0.000604 -0.497328 -179.776016 3.883055 -0.000005 -0.000004 -1.112480 -10.692367 2.027024 0.603768 -0.000003 -0.000002 -0.218932 72.398789 -6.808780 -2.098941 25.717913 7.349585 -0.395039 
50.572796 -11.310818 99.917496 -1.522153 -2.298071 3.618640 -1.993360 0.050926 0.109203 0.016009 0.105580 0.220119 1.661084 0.108209 0.218840 21.288894 7.906718 0.361321 -4.627235 -2.000614 0.941870 -5.292117 -59.941604 -6.368786 -37.103596 -119.687030 -22.636184 0.000000 -0.000003 0.000001 0.105112 -13.005280 -0.435042 0.000001 0.000005 -3.024840 -5.000229 -7.998712 0.000149 -10.384114 62.475774 12.477025 -38.544093 117.515577 30.868931 0.000001 0.000031 -0.000001 1.697594 10.697513 0.341931 0.000002 -0.000028 3.000011 -5.000240 7.998753 -0.000142 -3.176990 -175.982160 0.937359 -179.999991 0.000005 -1.024004 165.223806 -2.030615 -0.902486 -0.000003 0.000004 0.305330 74.287992 6.588987 2.636023 25.459289 -7.349255 0.000604 -0.516631 -179.775019 3.885621 -0.000005 -0.000004 -1.112480 -10.708158 2.023726 0.605457 -0.000003 -0.000002 -0.219322 72.406952 -6.808777 -2.098944 25.718420 7.349580 -0.395737 
